<?xml version="1.0" encoding="utf-8"?>
<!-- Generator: Adobe Illustrator 19.0.0, SVG Export Plug-In . SVG Version: 6.00 Build 0)  -->
<svg version="1.1" id="Layer_1" xmlns="http://www.w3.org/2000/svg" xmlns:xlink="http://www.w3.org/1999/xlink" x="0px" y="0px"
	 viewBox="0 0 612 792" style="enable-background:new 0 0 612 792;" xml:space="preserve">
<style type="text/css">
	.st0{fill:#FFFFFF;}
	.st1{font-family:'Roboto-Bold';}
	.st2{font-size:46.409px;}
</style>
<g id="XMLID_1_">
	<path id="XMLID_165_" class="st0" d="M125.4,316c-4.6-4.6-10.1-8.2-16.3-10.9c-6.2-2.7-12.9-4-20-4c-7,0-13.7,1.4-19.9,4
		c-6.1,2.7-11.5,6.3-16.1,10.9c-4.7,4.6-8.4,10.1-11,16.3c-2.7,6.3-4,13-4,20c0,7,1.4,13.8,4,20c2.7,6.2,6.4,11.6,11,16.2
		c4.6,4.6,10.1,8.2,16.2,10.9c6.1,2.7,12.8,4.1,19.9,4.1c7,0,13.7-1.4,20-4c6.2-2.7,11.6-6.3,16.3-10.9c4.6-4.6,8.3-10,11-16.2
		c2.7-6.2,4-12.9,4-20c0-7-1.4-13.8-4-20C133.7,326.1,130,320.6,125.4,316z M89.2,380.2c-3.8,0-7.4-0.8-10.8-2.2
		c-3.4-1.5-6.4-3.5-9-6c-2.5-2.5-4.5-5.4-5.9-8.8c-1.4-3.4-2.1-7-2.1-10.8c0-3.8,0.7-7.5,2.1-10.8c1.4-3.4,3.4-6.4,6-8.9
		c2.5-2.5,5.5-4.5,8.9-6c3.4-1.4,7-2.1,10.8-2.1c3.8,0,7.4,0.7,10.8,2.1c3.4,1.4,6.4,3.4,8.9,6c2.5,2.5,4.5,5.5,6,8.9
		c1.4,3.4,2.2,7,2.2,10.8c0,3.8-0.7,7.4-2.2,10.8c-1.4,3.4-3.4,6.3-5.9,8.8c-2.6,2.5-5.6,4.5-9,6C96.6,379.4,93,380.2,89.2,380.2z"
		/>
	<g id="XMLID_73_">
		<path id="XMLID_16_" class="st0" d="M65.7,291.6l5.7-14l-1.7-2l-6.1,15.1c-3.7,1-7.6,11.6-7.6,11.6l3.5,1.6l3.6,1.4
			C63.1,305.3,67.7,294.8,65.7,291.6z"/>
		<path id="XMLID_11_" class="st0" d="M78.7,287.3L78.7,287.3l-3.1,7.7c37.1,6.7,59.2,24.2,59.2,24.2l1.8-6.6l0.1,0
			C113.8,290.9,82.8,287.6,78.7,287.3z"/>
		<path id="XMLID_10_" class="st0" d="M137.3,311.9l19.8-0.7l-36.2-36.1l-57-4.2l15.4,15.8C83.4,287.1,114.3,290.4,137.3,311.9z"/>
		<polygon id="XMLID_9_" class="st0" points="68,272.8 88,274.8 72.1,274.5 81.4,286.6 		"/>
		<polygon id="XMLID_8_" class="st0" points="141.6,297.5 152.9,309.6 138.2,310.8 149,308.5 		"/>
	</g>
	<g id="XMLID_15_">
		<path id="XMLID_70_" class="st0" d="M184.7,388.6c0,1.2-0.3,2.2-0.9,3c-0.6,0.9-1.2,1-1.7,1c-0.8,0-1.4-0.2-1.9-0.7
			c-0.5-0.5-0.7-1.1-0.7-1.8v-20.7h14v-10.2h-14v-9.7h-10.3v40.6c0,1.8,0.3,3.5,1,5c0.7,1.5,1.6,2.9,2.7,4c1.2,1.2,2.5,2.1,4.1,2.8
			c1.6,0.7,3.3,1,5,1c1.8,0,3.5-0.4,5.1-1.2c1.6-0.8,2.9-1.8,4.1-3.1c1.1-1.3,2-2.8,2.7-4.5c0.7-1.7,1-3.6,1-5.5v-1.7h-10.2V388.6z"
			/>
		<path id="XMLID_69_" class="st0" d="M222.1,385.4c0,1-0.2,2-0.6,2.9c-0.4,0.9-0.9,1.7-1.6,2.4c-0.7,0.7-1.5,1.2-2.3,1.6
			c-0.9,0.4-1.8,0.6-2.9,0.6c-1,0-2-0.2-2.9-0.6c-0.9-0.4-1.7-0.9-2.4-1.6c-0.7-0.7-1.2-1.5-1.6-2.4c-0.4-0.9-0.6-1.9-0.6-2.9V359
			h-10.2v26.4c0,2.4,0.5,4.7,1.4,6.8c0.9,2.1,2.2,4,3.8,5.6c1.6,1.6,3.5,2.9,5.6,3.8c2.1,0.9,4.5,1.4,6.9,1.4c2.4,0,4.7-0.5,6.9-1.4
			c2.1-0.9,4-2.2,5.6-3.8c1.6-1.6,2.9-3.5,3.8-5.6c0.9-2.1,1.4-4.5,1.4-6.9V359h-10.3V385.4z"/>
		<path id="XMLID_68_" class="st0" d="M251.9,388.6c0,1.2-0.3,2.2-0.9,3c-0.6,0.9-1.2,1-1.7,1c-0.8,0-1.4-0.2-1.9-0.7
			c-0.5-0.5-0.7-1.1-0.7-1.8v-20.7h14v-10.2h-14v-9.7h-10.3v40.6c0,1.8,0.3,3.5,1,5c0.7,1.5,1.6,2.9,2.7,4c1.2,1.2,2.5,2.1,4.1,2.8
			c1.6,0.7,3.3,1,5,1c1.8,0,3.5-0.4,5.1-1.2c1.6-0.8,2.9-1.8,4.1-3.1c1.1-1.3,2-2.8,2.7-4.5c0.7-1.7,1-3.6,1-5.5v-1.7h-10.2V388.6z"
			/>
		<path id="XMLID_12_" class="st0" d="M300.4,364.7c-2-2-4.4-3.6-7.1-4.8c-2.7-1.2-5.7-1.8-8.8-1.8c-3.1,0-6,0.6-8.7,1.8
			c-2.7,1.2-5.1,2.8-7.1,4.8c-2,2-3.7,4.4-4.8,7.2c-1.2,2.8-1.8,5.7-1.8,8.8c0,3.1,0.6,6,1.8,8.8c1.2,2.7,2.8,5.1,4.8,7.1
			c2,2,4.4,3.6,7.1,4.8c2.7,1.2,5.6,1.8,8.7,1.8c3.1,0,6-0.6,8.8-1.8c2.7-1.2,5.1-2.8,7.1-4.8c2-2,3.7-4.4,4.8-7.1
			c1.2-2.7,1.8-5.7,1.8-8.8c0-3.1-0.6-6.1-1.8-8.8C304,369.2,302.4,366.8,300.4,364.7z M284.4,393c-1.7,0-3.3-0.3-4.7-1
			c-1.5-0.7-2.8-1.5-3.9-2.6c-1.1-1.1-2-2.4-2.6-3.9c-0.6-1.5-0.9-3.1-0.9-4.8c0-1.7,0.3-3.3,0.9-4.8c0.6-1.5,1.5-2.8,2.6-3.9
			c1.1-1.1,2.4-2,3.9-2.6c1.5-0.6,3.1-0.9,4.8-0.9c1.7,0,3.3,0.3,4.8,0.9c1.5,0.6,2.8,1.5,3.9,2.6c1.1,1.1,2,2.4,2.6,3.9
			c0.6,1.5,0.9,3.1,0.9,4.8c0,1.7-0.3,3.3-0.9,4.8c-0.6,1.5-1.5,2.8-2.6,3.9c-1.1,1.1-2.4,2-4,2.6C287.7,392.6,286.1,393,284.4,393z
			"/>
		<path id="XMLID_65_" class="st0" d="M334.8,358.2c-3.3,0-6.4,0.6-9.3,1.8c-2.9,1.2-5.4,2.8-7.6,4.8c-2.2,2-3.9,4.4-5.2,7.2
			c-1.3,2.8-1.9,5.7-1.9,8.8v21.6h10.3v-21.6c0-1.6,0.3-3.2,1-4.7c0.7-1.5,1.7-2.8,2.9-3.9c1.2-1.1,2.7-2,4.4-2.7
			c1.7-0.6,3.5-1,5.4-1h1.7v-10.3H334.8z"/>
		<g id="XMLID_149_">
			<path id="XMLID_162_" class="st0" d="M344,351.2h6.9v9.7h14v6.8h-14v22.4c0,1.2,0.4,2.2,1.2,3c0.8,0.8,1.8,1.2,3.1,1.2
				c1.2,0,2.2-0.6,3.1-1.7c0.8-1.1,1.2-2.5,1.2-4.1h6.8c0,1.8-0.3,3.4-0.9,4.9c-0.6,1.5-1.4,2.8-2.4,4c-1,1.1-2.2,2-3.5,2.7
				c-1.4,0.7-2.8,1-4.3,1c-1.5,0-3-0.3-4.3-0.9c-1.4-0.6-2.5-1.4-3.5-2.4c-1-1-1.8-2.2-2.4-3.5c-0.6-1.3-0.9-2.8-0.9-4.3V351.2z"/>
			<path id="XMLID_159_" class="st0" d="M390.4,401.6c-2.9,0-5.6-0.5-8.1-1.6c-2.5-1.1-4.7-2.6-6.6-4.5c-1.9-1.9-3.4-4.1-4.5-6.6
				c-1.1-2.5-1.6-5.2-1.6-8.1c0-2.9,0.5-5.6,1.6-8.1c1.1-2.5,2.6-4.8,4.5-6.6c1.9-1.9,4.1-3.3,6.6-4.4c2.5-1.1,5.2-1.6,8.1-1.6
				c2.9,0,5.6,0.6,8.1,1.6c2.5,1.1,4.7,2.6,6.6,4.4c1.9,1.9,3.3,4.1,4.4,6.6c1.1,2.6,1.6,5.3,1.6,8.1c0,0.4,0,0.8,0,1.2
				c0,0.4-0.1,1.1-0.2,2.2h-34c0.4,1.5,1,2.9,1.8,4.2c0.9,1.3,1.9,2.4,3,3.3c1.2,1,2.5,1.7,3.9,2.2c1.5,0.5,3,0.8,4.7,0.8
				c1.3,0,2.6-0.3,3.8-1c1.3-0.7,2.5-1.6,3.7-2.7l4.8,4.8c-1.8,1.7-3.7,3.1-5.8,4.1C394.8,401.1,392.7,401.6,390.4,401.6z
				 M403.9,377.4c-0.4-1.5-1-2.9-1.9-4.2c-0.8-1.3-1.8-2.4-3-3.4c-1.2-0.9-2.5-1.7-3.9-2.2c-1.5-0.5-3-0.8-4.7-0.8
				c-1.7,0-3.2,0.3-4.7,0.8c-1.5,0.5-2.8,1.3-3.9,2.2c-1.2,0.9-2.2,2-3,3.4c-0.8,1.3-1.5,2.7-1.8,4.2H403.9z"/>
			<path id="XMLID_157_" class="st0" d="M418.7,342.3h6.8v34.9l16.4-16.4h9.6l-19.9,19.9l19.9,19.9h-9.6l-16.4-16.4v16.4h-6.8V342.3
				z"/>
			<path id="XMLID_155_" class="st0" d="M477.6,359.9c2.9,0,5.6,0.5,8.1,1.6c2.5,1.1,4.7,2.6,6.6,4.4c1.9,1.9,3.4,4.1,4.5,6.6
				c1.1,2.6,1.6,5.3,1.6,8.1v19.9h-6.9v-19.9c0-1.9-0.4-3.7-1.1-5.4c-0.7-1.7-1.7-3.2-2.9-4.5c-1.3-1.3-2.7-2.3-4.4-3
				c-1.7-0.7-3.5-1.1-5.5-1.1c-1.9,0-3.7,0.4-5.4,1.1c-1.7,0.7-3.2,1.7-4.4,3c-1.3,1.3-2.2,2.8-3,4.5c-0.7,1.7-1.1,3.5-1.1,5.4v19.9
				h-6.8v-19.9c0-2.9,0.5-5.6,1.6-8.1c1.1-2.6,2.6-4.8,4.5-6.6c1.9-1.9,4.1-3.3,6.6-4.4C472,360.5,474.7,359.9,477.6,359.9z"/>
			<path id="XMLID_152_" class="st0" d="M505.5,342.3h6.9v9.3h-6.9V342.3z M505.5,360.8h6.9v39.9h-6.9V360.8z"/>
			<path id="XMLID_150_" class="st0" d="M518.8,342.3h6.8v34.9l16.4-16.4h9.6l-19.9,19.9l19.9,19.9H542l-16.4-16.4v16.4h-6.8V342.3z
				"/>
		</g>
		<g id="XMLID_2_">
			<path id="XMLID_7_" class="st0" d="M274.1,354l2.5-6.1l-0.8-0.9l-2.7,6.6c-1.6,0.5-3.4,5.1-3.4,5.1l1.6,0.7l1.6,0.6
				C273,360,275,355.4,274.1,354z"/>
			<path id="XMLID_6_" class="st0" d="M279.8,352.1L279.8,352.1l-1.3,3.4c16.3,2.9,26,10.6,26,10.6l0.8-2.9l0,0
				C295.3,353.7,281.7,352.3,279.8,352.1z"/>
			<path id="XMLID_5_" class="st0" d="M305.6,363l8.7-0.3l-15.9-15.9l-25-1.8l6.8,6.9C281.9,352,295.5,353.5,305.6,363z"/>
			<polygon id="XMLID_4_" class="st0" points="275.1,345.8 283.9,346.6 276.9,346.5 281,351.8 			"/>
			<polygon id="XMLID_3_" class="st0" points="307.5,356.6 312.4,361.9 306,362.5 310.7,361.5 			"/>
		</g>
	</g>
	<text id="XMLID_17_" transform="matrix(1 0 0 1 165.43 333.3964)" class="st0 st1 st2">Beta</text>
</g>
</svg>
