<?xml version="1.0" encoding="utf-8"?>
<!-- Generator: Adobe Illustrator 19.0.0, SVG Export Plug-In . SVG Version: 6.00 Build 0)  -->
<svg version="1.1" id="Layer_1" xmlns="http://www.w3.org/2000/svg" xmlns:xlink="http://www.w3.org/1999/xlink" x="0px" y="0px"
	 viewBox="0 0 992.1 992.1" style="enable-background:new 0 0 992.1 992.1;" xml:space="preserve">
<style type="text/css">
	.st0{fill:#FFFFFF;}
</style>
<g id="XMLID_20_">
	<path id="XMLID_38_" class="st0" d="M16.1,86.9v818.3c0,39.1,31.7,70.8,70.8,70.8h818.3c39.1,0,70.8-31.7,70.8-70.8V86.9
		c0-39.1-31.7-70.8-70.8-70.8H86.9C47.8,16.1,16.1,47.8,16.1,86.9z M847.3,457.4c-0.4,5.6-1.2,12.8-2.8,21.3
		c-4.3,27.1-13.5,52.9-26.9,77c-6.3,11.3-37.1,54.5-46.6,65.9c-51.9,62.6-138.9,134.8-284.4,205c-13.6,6.5-29.1-4.3-27.4-19.3l0,0
		c4.8-42.8-25.5-86.8-67.2-97.1c-143.3-35.2-247.4-141.5-247.4-267c0-154.3,157.3-279.5,351.3-279.5c188.6,0,342.4,118.2,351,266.5
		C847.2,434.4,847.9,448.1,847.3,457.4z"/>
	<path id="XMLID_17_" class="st0" d="M356.7,499.7h-53.9V382c0-9.9-8-18-18-18c-9.9,0-18,8-18,18v135.7c0,9.9,8.1,18,18,18h71.9
		c9.9,0,18-8,18-18C374.7,507.7,366.6,499.7,356.7,499.7z"/>
	<path id="XMLID_16_" class="st0" d="M413.6,364h-7.9c-7.8,0-14,6.3-14,14v143.5c0,7.8,6.3,14,14,14h7.9c7.8,0,14.1-6.3,14.1-14V378
		C427.7,370.3,421.4,364,413.6,364z"/>
	<path id="XMLID_15_" class="st0" d="M576.8,364c-9.9,0-18,8-18,18v82.9c0,0-71.8-93.6-72.9-94.8c-3.4-3.9-8.5-6.2-14.1-6
		c-9.8,0.4-17.3,8.9-17.3,18.7v134.9c0,9.9,8.1,18,18,18c9.9,0,18-8,18-18v-82.4c0,0,72.9,94.4,73.9,95.5c3.2,3,7.4,4.9,12.2,4.9
		c10,0.1,18.1-8.7,18.1-18.7V382C594.8,372.1,586.8,364,576.8,364z"/>
	<path id="XMLID_14_" class="st0" d="M711.6,399.9c9.9,0,18-8,18-18c0-9.9-8-18-18-18h-71.9c-9.9,0-18,8-18,18v135.7
		c0,9.9,8,18,18,18h71.9c9.9,0,18-8,18-18c0-9.9-8-18-18-18h-53.9v-31.9h53.9c9.9,0,18-8,18-18c0-9.9-8-18-18-18h-53.9v-31.9H711.6z
		"/>
</g>
</svg>
