<?xml version="1.0" encoding="utf-8"?>
<!-- Generator: Adobe Illustrator 19.0.0, SVG Export Plug-In . SVG Version: 6.00 Build 0)  -->
<svg version="1.1" id="Layer_1" xmlns="http://www.w3.org/2000/svg" xmlns:xlink="http://www.w3.org/1999/xlink" x="0px" y="0px"
	 viewBox="0 0 992.1 992.1" style="enable-background:new 0 0 992.1 992.1;" xml:space="preserve">
<style type="text/css">
	.st0{fill:#FFFFFF;}
</style>
<g id="XMLID_18_">
	<path id="XMLID_44_" class="st0" d="M712.4,13.3H279.7c-146.9,0-266.5,119.5-266.5,266.5v432.7c0,146.9,119.5,266.5,266.5,266.5
		h432.7c146.9,0,266.5-119.6,266.5-266.5V279.7C978.9,132.8,859.3,13.3,712.4,13.3L712.4,13.3z M893.2,712.4
		c0,99.7-81.1,180.8-180.8,180.8H279.7c-99.7,0-180.8-81.1-180.8-180.8V279.7C98.9,180,180,98.9,279.7,98.9h432.7
		c99.7,0,180.8,81.1,180.8,180.8V712.4z M893.2,712.4"/>
	<path id="XMLID_40_" class="st0" d="M496.1,247.3c-137.2,0-248.8,111.6-248.8,248.8c0,137.2,111.6,248.8,248.8,248.8
		c137.2,0,248.8-111.6,248.8-248.8C744.9,358.9,633.2,247.3,496.1,247.3L496.1,247.3z M496.1,659.2c-89.9,0-163.1-73.2-163.1-163.1
		c0-89.9,73.2-163.1,163.1-163.1s163.1,73.2,163.1,163.1C659.2,586,586,659.2,496.1,659.2L496.1,659.2z M496.1,659.2"/>
	<path id="XMLID_21_" class="st0" d="M755.3,174.6c-16.5,0-32.7,6.7-44.4,18.4c-11.7,11.7-18.5,27.9-18.5,44.5
		c0,16.5,6.7,32.7,18.5,44.4c11.6,11.7,27.9,18.4,44.4,18.4c16.6,0,32.7-6.7,44.4-18.4c11.7-11.7,18.4-27.9,18.4-44.4
		c0-16.6-6.7-32.8-18.4-44.5C788.1,181.3,771.9,174.6,755.3,174.6L755.3,174.6z M755.3,174.6"/>
</g>
</svg>
