<?xml version="1.0" encoding="utf-8"?>
<!-- Generator: Adobe Illustrator 19.0.0, SVG Export Plug-In . SVG Version: 6.00 Build 0)  -->
<svg version="1.1" id="Layer_1" xmlns="http://www.w3.org/2000/svg" xmlns:xlink="http://www.w3.org/1999/xlink" x="0px" y="0px"
	 viewBox="0 0 992.1 992.1" style="enable-background:new 0 0 992.1 992.1;" xml:space="preserve">
<style type="text/css">
	.st0{fill:#FFFFFF;}
</style>
<path id="XMLID_23_" class="st0" d="M846.6,16.3h-701c-71.4,0-129.3,57.9-129.3,129.3v701c0,71.4,57.9,129.3,129.3,129.3h345.7
	l0.6-342.9h-89.1c-11.6,0-21-9.4-21-20.9l-0.4-110.5c0-11.6,9.4-21.1,21-21.1h88.9V373.6c0-123.9,75.7-191.4,186.3-191.4h90.7
	c11.6,0,21,9.4,21,21v93.2c0,11.6-9.4,21-21,21l-55.7,0c-60.1,0-71.8,28.6-71.8,70.5v92.5H773c12.6,0,22.4,11,20.9,23.5l-13.1,110.5
	c-1.3,10.6-10.2,18.5-20.9,18.5H641.4l-0.6,342.9h205.7c71.4,0,129.3-57.9,129.3-129.3v-701C975.9,74.2,918,16.3,846.6,16.3z"/>
</svg>
