<?xml version="1.0" encoding="utf-8"?>
<!-- Generator: Adobe Illustrator 19.0.0, SVG Export Plug-In . SVG Version: 6.00 Build 0)  -->
<svg version="1.1" id="Layer_1" xmlns="http://www.w3.org/2000/svg" xmlns:xlink="http://www.w3.org/1999/xlink" x="0px" y="0px"
	 viewBox="0 0 2921 809.9" style="enable-background:new 0 0 2921 809.9;" xml:space="preserve">
<style type="text/css">
	.st0{fill:#FEC111;}
	.st1{fill:#2A2D2F;}
	.st2{fill:#F9C91F;}
	.st3{fill:#58595B;}
</style>
<path class="st0" d="M996,466.4c0,5.7-1.4,10.3-4.2,14.1c-3,4-5.7,4.5-7.8,4.5c-3.5,0-6.3-1.1-8.6-3.4c-2.3-2.3-3.4-4.9-3.4-8.2
	v-95.7h64.5v-47.2h-64.5v-45h-47.6v187.8c0,8.2,1.6,16,4.7,23.1c3.1,7,7.4,13.3,12.7,18.6c5.4,5.4,11.7,9.6,18.9,12.7
	c7.2,3.1,15.1,4.7,23.2,4.7c8.3,0,16.3-1.8,23.6-5.4c7.2-3.5,13.5-8.4,18.7-14.5c5.1-5.9,9.2-12.9,12.3-20.8
	c3-7.9,4.6-16.5,4.6-25.5v-7.9H996V466.4z"/>
<path class="st0" d="M1168.9,451.7c0,4.8-0.9,9.3-2.7,13.5c-1.8,4.2-4.3,7.9-7.4,11c-3.1,3.1-6.7,5.6-10.8,7.4
	c-4.1,1.8-8.4,2.7-13.2,2.7c-4.8,0-9.3-0.9-13.5-2.7c-4.2-1.8-7.9-4.3-11-7.4c-3.1-3.1-5.5-6.7-7.3-11c-1.8-4.1-2.7-8.7-2.7-13.5
	V329.4h-47.2v122.2c0,11.1,2.1,21.8,6.4,31.7c4.2,9.9,10,18.6,17.4,25.9c7.3,7.3,16,13.2,25.8,17.5c9.9,4.4,20.8,6.6,32.1,6.6
	c11.1,0,21.8-2.2,31.8-6.6c9.8-4.3,18.5-10.2,25.8-17.5c7.3-7.3,13.2-16,17.5-25.9c4.4-9.9,6.6-20.6,6.6-31.7V329.4h-47.6V451.7z"/>
<path class="st0" d="M1306.8,466.4c0,5.7-1.4,10.3-4.1,14.1c-3,4-5.7,4.5-7.8,4.5c-3.5,0-6.3-1.1-8.6-3.4c-2.3-2.3-3.4-4.9-3.4-8.2
	v-95.7h64.5v-47.2h-64.5v-45h-47.6v187.8c0,8.2,1.6,16,4.7,23.1c3.1,7,7.4,13.3,12.7,18.6c5.4,5.4,11.7,9.6,18.9,12.7
	c7.2,3.1,15,4.7,23.2,4.7c8.3,0,16.3-1.8,23.6-5.4c7.2-3.5,13.5-8.4,18.7-14.5c5.1-5.9,9.2-12.9,12.3-20.8c3-7.9,4.6-16.5,4.6-25.5
	v-7.9h-47.2V466.4z"/>
<path class="st0" d="M1530.7,356.1c-9.4-9.2-20.5-16.7-33-22.1c-12.6-5.5-26.3-8.2-40.6-8.2c-14.3,0-27.9,2.8-40.4,8.2
	c-12.4,5.4-23.4,12.8-32.8,22.1c-9.5,9.3-17,20.5-22.4,33.1c-5.4,12.7-8.2,26.4-8.2,40.7c0,14.3,2.8,27.9,8.2,40.5
	c5.4,12.6,12.9,23.7,22.3,32.9c9.4,9.3,20.4,16.7,32.8,22.1c12.5,5.4,26.1,8.2,40.4,8.2c14.3,0,27.9-2.8,40.6-8.2
	c12.5-5.4,23.6-12.8,33-22.1c9.4-9.3,16.9-20.4,22.3-32.9c5.5-12.6,8.2-26.3,8.2-40.5c0-14.3-2.8-28-8.2-40.7
	C1547.6,376.5,1540.1,365.4,1530.7,356.1z M1457.1,486.5c-7.7,0-15.1-1.5-21.9-4.5c-6.9-3-13.1-7.2-18.2-12.2
	c-5.1-5-9.2-11-12.1-17.9c-2.9-6.9-4.4-14.3-4.4-22c0-7.7,1.5-15.1,4.4-22c2.9-6.9,7-13,12.1-18.1c5.1-5.1,11.3-9.2,18.1-12.1
	c6.9-2.9,14.2-4.4,22-4.4c7.7,0,15.1,1.5,22,4.4c6.9,2.9,13,7,18.1,12.1c5.1,5.1,9.2,11.2,12.1,18.1c2.9,6.8,4.4,14.3,4.4,22
	c0,7.7-1.5,15.1-4.4,22c-2.9,6.9-6.9,12.9-12.1,17.9c-5.2,5.1-11.3,9.2-18.3,12.2C1472.2,485,1464.8,486.5,1457.1,486.5z"/>
<path class="st0" d="M1689.7,325.8c-15.2,0-29.7,2.7-43,8.1c-13.2,5.4-25,12.8-35,22c-10.1,9.3-18.1,20.4-24,33.1
	c-5.9,12.8-8.8,26.5-8.8,40.9V530h47.5V429.9c0-7.6,1.6-14.9,4.8-21.7c3.2-6.9,7.8-13,13.4-18.1c5.7-5.2,12.6-9.3,20.2-12.3
	c7.7-2.9,16-4.5,24.8-4.5h7.9v-47.5H1689.7z"/>
<g>
	<path class="st1" d="M1732.6,293.5h31.7v45h64.5v31.3h-64.5v103.6c0,5.4,1.9,10,5.7,13.8c3.8,3.8,8.5,5.7,14.2,5.7
		c5.7,0,10.4-2.6,14.2-7.7c3.8-5.2,5.7-11.4,5.7-18.8h31.3c0,8.1-1.3,15.7-4.1,22.7c-2.7,7-6.3,13.1-10.9,18.4
		c-4.6,5.3-10,9.5-16.2,12.5c-6.3,3.1-13,4.6-20.1,4.6c-7.1,0-13.8-1.3-20.1-4.1c-6.3-2.7-11.7-6.4-16.4-11.1
		c-4.7-4.7-8.4-10.1-11.1-16.2c-2.7-6.2-4-12.8-4-19.9V293.5z"/>
	<path class="st1" d="M1947.2,526.5c-13.3,0-25.8-2.5-37.4-7.6c-11.7-5-21.9-11.9-30.6-20.6c-8.7-8.7-15.6-18.9-20.6-30.4
		c-5-11.5-7.5-23.9-7.5-37.2c0-13.3,2.5-25.8,7.5-37.6c5-11.8,11.9-22,20.6-30.6c8.7-8.6,18.9-15.4,30.6-20.5
		c11.7-5,24.1-7.6,37.4-7.6c13.3,0,25.7,2.5,37.4,7.6c11.7,5,21.8,11.9,30.4,20.5c8.6,8.6,15.4,18.8,20.5,30.6
		c5,11.8,7.6,24.4,7.6,37.6c0,1.7,0,3.6,0,5.5c0,2-0.3,5.3-0.7,10h-157.4c1.7,7.1,4.5,13.6,8.5,19.5c3.9,5.9,8.6,11.1,14,15.5
		c5.4,4.4,11.5,7.9,18.2,10.4c6.7,2.4,13.9,3.7,21.6,3.7c5.9,0,11.8-1.5,17.7-4.6c5.9-3.1,11.6-7.2,17-12.4l22.1,22.1
		c-8.1,7.9-17,14.2-26.7,19C1967.5,524.1,1957.5,526.5,1947.2,526.5z M2009.5,414.8c-2-6.9-4.8-13.3-8.6-19.4
		c-3.8-6-8.4-11.2-13.8-15.5c-5.4-4.3-11.5-7.7-18.2-10.2c-6.8-2.4-14-3.7-21.6-3.7c-7.6,0-14.8,1.2-21.6,3.7
		c-6.8,2.5-12.8,5.9-18.2,10.2c-5.4,4.3-10.1,9.5-14,15.5c-3.9,6-6.7,12.4-8.5,19.4H2009.5z"/>
	<path class="st1" d="M2078.1,252.2h31.3v161.5l75.9-76h44.3l-92.2,92.2l92.2,92.2h-44.3l-75.9-76v76h-31.3V252.2z"/>
	<path class="st1" d="M2350.2,333.7c13.3,0,25.7,2.5,37.4,7.6c11.7,5,21.9,11.8,30.6,20.5c8.7,8.6,15.6,18.8,20.6,30.6
		c5,11.8,7.6,24.3,7.6,37.6v92.2h-31.7v-92.2c0-8.9-1.7-17.2-5-25.1c-3.3-7.9-7.9-14.7-13.6-20.7c-5.8-5.9-12.6-10.5-20.5-13.8
		c-7.9-3.3-16.3-5-25.4-5c-8.8,0-17.2,1.7-25.1,5c-7.9,3.3-14.7,7.9-20.5,13.8c-5.8,5.9-10.4,12.8-13.8,20.7
		c-3.4,7.9-5.2,16.2-5.2,25.1v92.2h-31.3v-92.2c0-13.3,2.5-25.8,7.5-37.6c5-11.8,11.9-22,20.6-30.6c8.7-8.6,18.9-15.4,30.4-20.5
		C2324.5,336.2,2336.9,333.7,2350.2,333.7z"/>
	<path class="st1" d="M2479.2,252.2h31.7V295h-31.7V252.2z M2479.2,337.7h31.7v184.4h-31.7V337.7z"/>
	<path class="st1" d="M2540.8,252.2h31.3v161.5l75.9-76h44.2l-92.2,92.2l92.2,92.2H2648l-75.9-76v76h-31.3V252.2z"/>
</g>
<g>
	<path class="st2" d="M1409.4,306.6l11.6-28.4l-3.5-4l-12.5,30.7c-7.5,2.1-15.5,23.5-15.5,23.5l7.2,3.2l7.4,2.8
		C1404.1,334.4,1413.5,313.1,1409.4,306.6z"/>
	<path class="st1" d="M1435.8,297.8l0.1,0.1l-6.3,15.4c75.3,13.6,120.2,49.2,120.2,49.2l3.7-13.5l0.1,0
		C1507.1,305.2,1444.2,298.5,1435.8,297.8z"/>
	<path class="st1" d="M1554.8,347.9l40.2-1.4l-73.6-73.4l-115.8-8.5l31.3,32.1C1445.3,297.3,1508.2,304.1,1554.8,347.9z"/>
	<polygon class="st3" points="1414,268.3 1454.6,272.3 1422.4,271.8 1441.3,296.4 	"/>
	<polygon class="st3" points="1563.7,318.5 1586.6,343.1 1556.8,345.6 1578.6,341 	"/>
</g>
</svg>
